<svg width="50" height="70" viewBox="0 0 50 70" fill="none" xmlns="http://www.w3.org/2000/svg">
<path d="M2.35849 66.4688C1.60377 66.4688 1 67.0313 1 67.7344C1 68.4375 1.60377 69 2.35849 69C3.11321 69 3.71698 68.4375 3.71698 67.7344C3.71698 67.0313 3.11321 66.4688 2.35849 66.4688Z" fill="white"/>
<path d="M3.71698 67.7344C3.71698 67.0313 3.11321 66.4688 2.35849 66.4688C1.60377 66.4688 1 67.0313 1 67.7344C1 68.4375 1.60377 69 2.35849 69C3.11321 69 3.71698 68.4375 3.71698 67.7344ZM3.71698 67.7344C27.4906 67.7344 25.2264 2.34461 49 4.03208" stroke="black"/>
</svg>
